Stella Johnson is a single mother living in the town of Harper Valley. Now most of people, particularly on PTA board think that she is a little too liberal for them. So they are making things tough for her and her daughter. She then decides to get back at them by pulling all sorts of pranks on them. She also decides to run for the position of PTA President, which infuriates them.

Stars: Barbara Eden, Ronny Cox and Nanette Fabray

Writers: George Edwards (screenplay), George Edwards (story)

Director: Richard C. Bennett


File Details:

General

Complete name                            : Harper Valley P.T.A. (1978).avi
Format                                   : AVI
Format/Info                              : Audio Video Interleave
File size                                : 584 MiB
Duration                                 : 1h 41mn
Overall bit rate                         : 802 Kbps

Video

ID                                       : 0
Format                                   : MPEG-4 Visual
Format profile                           : Simple@L3
Format settings, BVOP                    : No
Format settings, QPel                    : No
Format settings, GMC                     : No warppoints
Format settings, Matrix                  : Default (H.263)
Codec ID                                 : XVID
Codec ID/Hint                            : XviD
Duration                                 : 1h 41mn
Bit rate                                 : 661 Kbps
Width                                    : 672 pixels
Height                                   : 368 pixels
Display aspect ratio                     : 16:9
Frame rate                               : 29.970 fps
Original frame rate                      : 29.000 fps
Color space                              : YUV
Chroma subsampling                       : 4:2:0
Bit depth                                : 8 bits
Scan type                                : Progressive
Compression mode                         : Lossy
Bits/(Pixel*Frame)                       : 0.089
Stream size                              : 481 MiB (82%)
Writing library                          : XviD 1.2.1 (UTC 2008-12-04)

Audio

ID                                       : 1
Format                                   : MPEG Audio
Format version                           : Version 1
Format profile                           : Layer 3
Mode                                     : Joint stereo
Mode extension                           : MS Stereo
Codec ID                                 : 55
Codec ID/Hint                            : MP3
Duration                                 : 1h 41mn
Bit rate mode                            : Constant
Bit rate                                 : 128 Kbps
Channel(s)                               : 2 channels
Sampling rate                            : 44.1 KHz
Compression mode                         : Lossy
Stream size                              : 93.1 MiB (16%)
Alignment                                : Aligned on interleaves
Interleave, duration                     : 26 ms (0.78 video frame)
Interleave, preload duration             : 52 ms
Writing library                          : LAME3.98.2